<?xml version="1.0" standalone="no"?>
<!DOCTYPE svg PUBLIC "-//W3C//DTD SVG 20010904//EN"
 "http://www.w3.org/TR/2001/REC-SVG-20010904/DTD/svg10.dtd">
<svg version="1.0" xmlns="http://www.w3.org/2000/svg"
 width="640.000000pt" height="640.000000pt" viewBox="0 0 640.000000 640.000000"
 preserveAspectRatio="xMidYMid meet">
<metadata>
Created by potrace 1.14, written by Peter Selinger 2001-2017
</metadata>
<g transform="translate(0.000000,640.000000) scale(0.100000,-0.100000)"
fill="#000000" stroke="none">
<path d="M2058 6066 c-27 -7 -48 -12 -48 -10 0 1 -36 -11 -81 -26 -144 -51
-217 -112 -277 -233 -36 -71 -42 -95 -47 -192 -2 -38 -4 -73 -5 -76 0 -3 -21
-18 -47 -33 -124 -71 -124 -71 -272 -176 -161 -114 -285 -222 -420 -364 -60
-64 -59 -62 -111 -126 -25 -30 -47 -57 -50 -60 -3 -3 -27 -34 -52 -70 -26 -36
-51 -69 -55 -75 -4 -5 -25 -36 -46 -68 -131 -200 -234 -410 -340 -693 -41
-108 -105 -345 -138 -509 -16 -77 -17 -83 -24 -130 -3 -22 -8 -53 -10 -69 -3
-15 -8 -49 -10 -75 -3 -25 -8 -77 -12 -116 -15 -145 -6 -646 12 -675 2 -3 6
-28 10 -55 7 -61 38 -207 64 -300 65 -235 196 -497 344 -683 64 -81 240 -262
255 -262 5 0 8 -10 7 -22 -1 -13 -3 -23 -5 -23 -6 0 -11 -66 -14 -195 -4 -166
9 -250 52 -331 32 -62 62 -86 117 -95 35 -5 111 10 125 26 6 6 84 49 117 65
13 5 23 13 23 18 0 4 5 7 10 7 10 0 73 36 136 78 10 7 27 15 37 18 9 4 17 10
17 14 0 5 10 12 23 16 12 4 24 10 27 13 7 9 130 81 137 81 4 0 14 6 22 14 19
16 296 158 391 200 36 16 88 39 115 51 28 12 82 34 120 50 39 15 84 33 100 40
30 13 296 103 325 110 8 3 60 16 115 31 114 30 102 27 220 53 50 11 106 22
126 25 20 3 42 7 50 10 14 5 71 14 135 21 18 2 54 7 80 10 256 32 681 33 880
1 25 -4 97 -14 154 -21 31 -4 99 -18 200 -42 58 -14 112 -26 120 -28 21 -5
162 -46 180 -53 8 -3 20 -6 25 -8 6 -1 66 -21 135 -44 204 -67 353 -106 490
-126 65 -9 300 -12 335 -4 17 4 55 13 85 20 147 34 287 132 365 255 86 137
119 265 119 465 0 172 -6 231 -40 369 -66 265 -179 458 -289 494 -53 17 -75
12 -121 -27 -121 -101 -184 -107 -336 -31 -131 66 -411 271 -468 344 -106 134
-296 316 -440 422 -187 137 -327 215 -555 307 -43 18 -211 68 -255 77 -8 2
-33 8 -55 13 -22 6 -56 13 -75 16 -19 3 -46 8 -60 10 -222 41 -634 51 -860 22
-19 -2 -62 -8 -95 -11 -33 -4 -62 -9 -65 -10 -3 -2 -33 -7 -65 -10 -33 -4 -63
-9 -66 -11 -4 -2 -24 -6 -45 -10 -54 -8 -104 -21 -214 -56 -52 -16 -102 -31
-110 -33 -8 -3 -40 -11 -70 -20 -30 -8 -71 -18 -90 -21 -19 -3 -38 -8 -41 -10
-20 -12 -194 -30 -274 -28 -251 5 -420 92 -499 257 -51 106 -66 187 -61 342 2
71 5 139 8 150 7 30 19 104 17 107 -1 2 3 15 9 31 6 15 13 38 15 50 12 57 16
72 37 130 21 62 102 235 136 292 20 33 54 84 65 100 66 87 118 147 201 229 84
84 102 98 116 88 114 -83 199 -114 311 -114 80 1 79 0 185 31 127 36 196 73
264 142 37 38 99 161 104 205 2 17 6 34 9 39 5 9 2 101 -5 150 -7 47 -43 124
-86 181 -51 69 -121 123 -202 154 -67 26 -204 34 -271 16z"/>
</g>
</svg>
